<svg viewBox="0 0 240 82" version="1.1" xmlns="http://www.w3.org/2000/svg" xmlns:xlink="http://www.w3.org/1999/xlink">
    <path d="M98.4332369,38.3637179 C96.9415079,55.5684906 93.4522246,68.5962808 97.5070462,67.1632001 C123.775173,57.8793525 139.20998,102.942881 139.209979,69.3827749 C139.209978,35.8226692 91.9703621,-20.9879535 97.5070462,7.96261347 C99.2687553,17.1743503 99.2735242,26.7423676 98.6633803,35.4358015 L107.975502,36.4179102 L98.4332369,38.3637179 Z M18.1288981,68.7654154 C16.1330462,68.7654154 14.2342432,68.5869867 12.4324324,68.2301238 C10.6306216,67.873261 8.96743659,67.3928759 7.44282744,66.7889542 C5.9182183,66.1850325 4.51837089,65.4987681 3.24324324,64.7301405 C1.96811559,63.9615128 0.887045322,63.1928967 0,62.4242691 L8.64864865,48.8360984 C9.9237763,49.8792359 11.3236237,50.7302037 12.8482328,51.3890274 C14.372842,52.0478511 15.8835684,52.377258 17.3804574,52.377258 C18.322943,52.377258 19.1129559,52.1439281 19.7505198,51.6772613 C20.3880836,51.2105945 20.7068607,50.5380554 20.7068607,49.6596239 C20.7068607,48.6164863 20.2494848,47.7380679 19.3347193,47.0243423 C18.4199538,46.3106166 16.9923867,45.4870993 15.0519751,44.5537658 C13.3887651,43.7851381 11.8087393,42.920445 10.3118503,41.9596604 C8.81496133,40.9988759 7.48441331,39.8322264 6.32016632,38.4596771 C5.15591933,37.0871277 4.22730769,35.481269 3.53430353,33.6420529 C2.84129938,31.8028368 2.49480249,29.6479666 2.49480249,27.1773777 C2.49480249,23.6087494 3.13235676,20.5754608 4.40748441,18.077421 C5.68261206,15.5793812 7.30421746,13.5480386 9.27234927,11.9833323 C11.2404811,10.418626 13.4303414,9.27942715 15.8419958,8.56570148 C18.2536503,7.85197581 20.623689,7.49511833 22.952183,7.49511833 C26.5003642,7.49511833 29.6742757,8.04412984 32.4740125,9.14216933 C35.2737493,10.2402088 37.6160682,11.6676387 39.5010395,13.4245019 L30.6029106,26.8479675 C29.6604249,25.914634 28.5516349,25.1322926 27.2765073,24.5009199 C26.0013796,23.8695472 24.7817106,23.5538656 23.6174636,23.5538656 C22.7304183,23.5538656 21.9265455,23.7734702 21.2058212,24.2126859 C20.4850969,24.6519017 20.1247401,25.4205179 20.1247401,26.5185573 C20.1247401,27.3969889 20.4989568,28.1107039 21.2474012,28.6597236 C21.9958457,29.2087434 23.4511326,30.0048101 25.6133056,31.0479476 C26.8329929,31.6518693 28.1912607,32.4067601 29.6881497,33.3126427 C31.1850387,34.2185253 32.5987459,35.3714495 33.9293139,36.7714498 C35.2598819,38.1714501 36.3825318,39.8596605 37.2972973,41.8361316 C38.2120628,43.8126027 38.6694387,46.1459016 38.6694387,48.8360984 C38.6694387,52.3498247 38.0873239,55.369388 36.9230769,57.8948788 C35.7588299,60.4203697 34.2065239,62.4791628 32.2661123,64.0713201 C30.3257006,65.6634773 28.1219805,66.8438521 25.6548857,67.6124797 C23.1877909,68.3811074 20.6791534,68.7654154 18.1288981,68.7654154 Z M70.2702703,44.9655285 L62.2869023,44.9655285 L62.2869023,67.2830695 L44.3243243,67.2830695 L44.3243243,8.97746423 L62.2869023,8.97746423 L62.2869023,28.9067813 L70.2702703,28.9067813 L70.2702703,8.97746423 L88.2328482,8.97746423 L88.2328482,67.2830695 L70.2702703,67.2830695 L70.2702703,44.9655285 Z M163.160083,46.3655219 L161.663202,46.3655219 L161.663202,67.2830695 L144.365904,67.2830695 L144.365904,8.97746423 L166.237006,8.97746423 C169.618867,8.97746423 172.57102,9.41667343 175.093555,10.295105 C177.61609,11.1735366 179.681212,12.4362631 181.288981,14.0833223 C182.896751,15.7303816 184.10256,17.7205483 184.906445,20.0538822 C185.71033,22.3872161 186.112266,25.008746 186.112266,27.9185507 C186.112266,29.8950218 185.890508,31.6793092 185.446985,33.2714664 C185.003463,34.8636237 184.449068,36.2773283 183.783784,37.5126227 C183.1185,38.7479172 182.370067,39.7773138 181.538462,40.6008434 C180.706857,41.424373 179.875264,42.0282856 179.043659,42.4125995 L188.440748,67.2830695 L169.397089,67.2830695 L163.160083,46.3655219 Z M160.742204,23.8832757 L160.742204,34.0949919 L162.239085,34.0949919 C162.738048,34.0949919 163.292443,34.0263655 163.902287,33.8891106 C164.512131,33.7518556 165.066526,33.4910752 165.565489,33.1067613 C166.064452,32.7224475 166.480248,32.2008866 166.81289,31.5420629 C167.145532,30.8832392 167.31185,30.0322714 167.31185,28.9891338 C167.31185,27.8910944 167.159392,27.0126759 166.85447,26.3538522 C166.549548,25.6950286 166.161472,25.1734676 165.690229,24.7891538 C165.218986,24.40484 164.72003,24.1577848 164.193347,24.0479808 C163.666664,23.9381769 163.181568,23.8832757 162.738046,23.8832757 L160.742204,23.8832757 Z M211.143451,41.9184842 L210.810811,41.9184842 L210.810811,67.2830695 L192.765073,67.2830695 L192.765073,8.97746423 L210.810811,8.97746423 L210.810811,31.9538256 L211.226611,31.9538256 L219.376299,8.97746423 L239.334719,8.97746423 L227.276507,35.4126327 L240,67.2830695 L219.376299,67.2830695 L211.143451,41.9184842 Z" fill="#222222"></path>
</svg>